/vscmnt/brussel_pixiu_data/_data_brussel/112/vsc11236/PredSimResults/SUBJ04opt3D/weighted-trackIG/worker_05.mot
version=1
nRows=5
nColumns=50
inDegrees=yes
endheader
                time	         pelvis_tilt	         pelvis_list	     pelvis_rotation	           pelvis_tx	           pelvis_ty	           pelvis_tz	       hip_flexion_r	     hip_adduction_r	      hip_rotation_r	        knee_angle_r	       ankle_angle_r	         mtp_angle_r	       hip_flexion_l	     hip_adduction_l	      hip_rotation_l	        knee_angle_l	       ankle_angle_l	         mtp_angle_l	    lumbar_extension	      lumbar_bending	     lumbar_rotation	 ercspn_r/activation	 intobl_r/activation	 extobl_r/activation	    abd_r/activation	    add_r/activation	hamstrings_r/activation	bifemsh_r/activation	glut_max_r/activation	iliopsoas_r/activation	rect_fem_r/activation	  vasti_r/activation	gastroc_r/activation	 soleus_r/activation	tib_ant_r/activation	 ercspn_l/activation	 intobl_l/activation	 extobl_l/activation	    abd_l/activation	    add_l/activation	hamstrings_l/activation	bifemsh_l/activation	glut_max_l/activation	iliopsoas_l/activation	rect_fem_l/activation	  vasti_l/activation	gastroc_l/activation	 soleus_l/activation	tib_ant_l/activation	
          1.33178774	         -1.15208430	          0.32463264	          6.87016223	          1.14533745	          0.88547157	         -0.00882020	         27.42193335	         -2.20033598	         -6.34740857	         -9.52887328	          4.00239998	          0.23507509	        -12.01046012	          0.11480016	         -5.80197945	         -6.25791250	         14.50614234	         16.68821935	        -14.24862644	         -4.47413659	         -8.10140490	          0.05770298	          0.24474888	          0.02276974	          0.00999999	          0.26095935	          0.06435156	          0.03514469	          0.01221963	          0.18808712	          0.03791891	          0.05020811	          0.00999999	          0.00999999	          0.34332174	          0.00999999	          0.00999999	          0.00999999	          0.09070778	          0.00999999	          0.03092229	          0.35135782	          0.01998527	          0.01666645	          0.00999999	          0.00999999	          0.28587493	          0.24603394	          0.01493196	
          1.34510562	         -1.25765811	          0.32374977	          6.62937339	          1.16002383	          0.88304985	         -0.00834062	         27.56353070	         -1.96803680	         -6.26254827	        -11.06608292	          3.85671898	          0.23284014	        -12.69483746	          0.05059123	         -6.44257015	         -6.71558937	         14.50062853	         17.98413204	        -13.76082635	         -3.83142862	         -8.23380993	          0.04722148	          0.22556459	          0.01863371	          0.00999999	          0.36164711	          0.06949920	          0.02876081	          0.00999999	          0.15392190	          0.03103110	          0.04108802	          0.01493196	          0.01824633	          0.33010091	          0.02960717	          0.00999999	          0.00999999	          0.07423110	          0.00999999	          0.02530539	          0.34399471	          0.01635503	          0.01824632	          0.01000001	          0.00999999	          0.28669048	          0.25942096	          0.01221963	
          1.35842349	         -1.34783035	          0.26505316	          6.35555808	          1.17517376	          0.88071072	         -0.00783622	         27.60551350	         -1.73025628	         -6.05344101	        -12.69254246	          3.70304761	          0.22424743	        -13.34193775	         -0.07464024	         -7.12441692	         -7.32226403	         14.42744070	         19.37377437	        -13.22659420	         -3.09662469	         -8.34215486	          0.03864390	          0.22855617	          0.01524898	          0.00999999	          0.29595546	          0.07872679	          0.02353654	          0.01361669	          0.12596265	          0.02539443	          0.03362456	          0.01221963	          0.01493196	          0.34947941	          0.02422916	          0.00999999	          0.00999999	          0.06074734	          0.00999999	          0.04430143	          0.31523243	          0.01473798	          0.01493195	          0.00999999	          0.00999999	          0.27697651	          0.26616183	          0.00999999	
          1.37174137	         -1.42414083	          0.13420945	          6.04151449	          1.19061291	          0.87860055	         -0.00724719	         27.57155663	         -1.43859105	         -5.92749759	        -14.16782336	          3.34237059	          0.21402666	        -13.89427216	         -0.28293139	         -7.85705569	         -8.15596337	         14.26806834	         20.85749451	        -12.66905653	         -2.26101360	         -8.41647258	          0.03162440	          0.18703992	          0.01247907	          0.00999999	          0.24224882	          0.09116526	          0.01926123	          0.01114328	          0.10308207	          0.02078164	          0.09433126	          0.00999999	          0.01221964	          0.37257181	          0.02039551	          0.00999999	          0.00999999	          0.04971285	          0.00999999	          0.04855342	          0.26407382	          0.01273678	          0.01221963	          0.00999999	          0.00999999	          0.24662976	          0.26415611	          0.00999999	
          1.38505925	         -1.48666807	         -0.06129084	          5.69013432	          1.20623460	          0.87687256	         -0.00655864	         27.45845675	         -1.09831514	         -5.95913725	        -15.50841572	          2.95029569	          0.19516712	        -14.31308500	         -0.57496364	         -8.64010878	         -9.27037577	         13.98383657	         22.42708509	        -12.10665422	         -1.33891870	         -8.45274278	          0.02587997	          0.15306493	          0.01021230	          0.01650792	          0.20226066	          0.09361985	          0.01576251	          0.01221962	          0.08435766	          0.01700675	          0.17704455	          0.00999999	          0.00999999	          0.39631845	          0.03236424	          0.00999999	          0.00999999	          0.04068272	          0.00999999	          0.06115586	          0.21610594	          0.01646677	          0.00999999	          0.00999999	          0.00999999	          0.20183052	          0.25326179	          0.00999999	
